<svg width="306" height="57" viewBox="0 0 306 57" fill="none" xmlns="http://www.w3.org/2000/svg">
<g clip-path="url(#clip0_1116_4562)">
<path d="M0 56.34C5.73621 37.7278 11.4724 19.1157 17.2023 0.50354H32.2115C37.9667 19.1157 43.722 37.7278 49.4772 56.34H32.4143L24.8083 11.4607C22.1335 26.4687 19.4524 41.4767 16.7776 56.4847C11.1872 56.4344 5.59043 56.3903 0 56.34Z" fill="black"/>
<path d="M79.5196 26.0158C80.3943 24.8207 83.5255 20.2542 82.6888 14.3227C81.7824 7.8377 76.4963 2.34651 69.3276 0.50354H51.6562V56.1387H72.7249C79.8809 54.5977 85.3129 48.8989 86.3144 41.9736C87.189 35.9289 84.565 29.8024 79.5196 26.0158ZM62.2476 11.1777H67.369C70.4748 11.6306 72.6552 14.3038 72.4841 17.1029C72.3446 19.4365 70.5889 21.5185 68.1233 22.1789H62.2476V11.1777ZM71.2227 45.452H62.3554V34.0293H70.4558C73.4729 34.5262 75.6342 37.1114 75.5772 39.9545C75.5201 42.4454 73.7644 44.7035 71.2227 45.452Z" fill="black"/>
<path d="M118.02 26.0158C118.894 24.8207 122.025 20.2542 121.189 14.3227C120.282 7.8377 114.996 2.34651 107.828 0.50354H90.1562V56.1387H111.225C118.381 54.5977 123.813 48.8989 124.814 41.9736C125.689 35.9289 123.065 29.8024 118.02 26.0158ZM100.748 11.1777H105.869C108.975 11.6306 111.155 14.3038 110.984 17.1029C110.845 19.4365 109.089 21.5185 106.623 22.1789H100.748V11.1777ZM109.723 45.452H100.855V34.0293H108.956C111.973 34.5262 114.134 37.1114 114.077 39.9545C114.02 42.4454 112.264 44.7035 109.723 45.452Z" fill="black"/>
<path d="M119.465 0.503906H135.476C137.77 10.1528 140.064 19.7954 142.353 29.4443C144.653 19.7954 146.942 10.1528 149.236 0.503906H164.993C159.492 12.9644 153.984 25.4249 148.482 37.8855V56.5039H135.976V38.2566C130.475 25.6703 124.973 13.0902 119.465 0.503906Z" fill="black"/>
</g>
<path d="M244.887 55.9995C233.275 55.9995 226.406 43.1367 226.406 28.1677C226.406 13.1987 233.275 0.335938 244.887 0.335938C256.499 0.335938 263.367 13.1987 263.367 28.1677C263.367 43.1367 256.499 55.9995 244.887 55.9995ZM244.887 43.9675C251.459 43.9675 252.766 37.3447 252.766 28.1677C252.766 18.9907 251.459 12.3679 244.887 12.3679C238.265 12.3679 236.958 18.9907 237.007 28.1677C236.958 37.3447 238.265 43.9675 244.887 43.9675Z" fill="black"/>
<path d="M286.241 56C274.632 56 267.207 48.8676 267.207 36.2309V0.336426H280.324V35.4556C280.324 41.6577 281.314 44.0214 286.241 44.0214C291.236 44.0214 292.159 41.6577 292.159 35.4556V0.336426H305.343V36.2309C305.343 48.8676 297.851 56 286.241 56Z" fill="black"/>
<path d="M185 0.671875H200.825C203.093 10.3208 205.361 19.9634 207.622 29.6122C209.896 19.9634 212.158 10.3208 214.426 0.671875H230C224.562 13.1324 219.118 25.5929 213.68 38.0534V56.6719H201.32V38.4245C195.882 25.8382 190.444 13.2582 185 0.671875Z" fill="black"/>
<defs>
<clipPath id="clip0_1116_4562">
<rect width="165" height="56" fill="white" transform="translate(0 0.503906)"/>
</clipPath>
</defs>
</svg>
